<svg version="1.1" xmlns="http://www.w3.org/2000/svg" viewBox="0 0 445.09825005661514 349.21099310585487" width="445.09825005661514" height="349.21099310585487">
  <!-- svg-source:excalidraw -->
  
  <defs>
    <style class="style-fonts">
      @font-face {
        font-family: "Virgil";
        src: url("https://excalidraw.com/Virgil.woff2");
      }
      @font-face {
        font-family: "Cascadia";
        src: url("https://excalidraw.com/Cascadia.woff2");
      }
    </style>
  </defs>
  <rect x="0" y="0" width="445.09825005661514" height="349.21099310585487" fill="#ffffff"></rect><g stroke-linecap="round" transform="translate(11.098250056615143 11.161006891860097) rotate(0 212 163)"><path d="M-0.11 -0.2 C88.03 0.57, 176.73 0.42, 423.96 -0.03 M0.29 0 C94.32 0.88, 189.45 1.4, 423.76 -0.44 M425.06 -0.91 C423.9 87.73, 425.89 174.32, 422.86 325.69 M424.3 0.09 C423.69 73.49, 424.11 147.16, 424.29 325.78 M423.18 326.69 C267.27 326.42, 109.27 327.83, -0.73 326.97 M423.81 325.77 C285.93 327.28, 148.29 328.17, 0.25 326.14 M-1.03 326.41 C-0.25 242.48, -2.67 157.2, -0.96 -0.77 M-0.23 326.37 C1.95 242.61, 2.1 159.18, 0.06 0.58" stroke="#000000" stroke-width="1" fill="none"></path></g><g stroke-linecap="round"><g transform="translate(118.96878727498984 11.428581946613264) rotate(0 -0.13114401225936945 163.17691460631417)"><path d="M0.78 -0.25 C0.95 54.29, 0.23 273.42, -0.05 327.78 M-0.27 -1.43 C-0.16 52.72, -1.32 271.33, -1.02 326.02" stroke="#000000" stroke-width="1" fill="none"></path></g></g><g stroke-linecap="round"><g transform="translate(11.308044352861998 46.972080806071745) rotate(0 53.46678246534225 0.33990305876253046)"><path d="M1.15 -0.75 C18.76 -0.93, 89.1 -0.3, 106.64 -0.12 M0.3 1.46 C17.61 1.41, 87.33 1.29, 105.42 1.35" stroke="#000000" stroke-width="1" fill="none"></path></g></g><g stroke-linecap="round"><g transform="translate(11.82316752473821 77.87947111864429) rotate(0 53.31788964645267 -0.33864372481261285)"><path d="M-0.24 -0.25 C17.56 -0.48, 88.22 -0.41, 106.23 -0.52 M-1.82 -1.42 C16.39 -1.58, 90.25 0.52, 108.46 0.75" stroke="#000000" stroke-width="1" fill="none"></path></g></g><g stroke-linecap="round"><g transform="translate(52.00277493108251 21.215922212261262) rotate(0 28.22718801372588 0.21440947664436294)"><path d="M-0.89 0.28 C8.75 0.59, 47.79 0.94, 57.34 1.05 M0.85 -0.62 C10.47 -0.55, 47.86 -0.47, 57.02 -0.53" stroke="#000000" stroke-width="1" fill="none"></path></g></g><g stroke-linecap="round"><g transform="translate(52.00277493108251 28.942769790404384) rotate(0 16.2389784030554 -0.16220428184115576)"><path d="M-0.63 -0.07 C4.45 0.06, 25.51 0.87, 30.75 0.92 M1.23 -1.15 C6.69 -1.36, 28.37 -1.19, 33.11 -0.73" stroke="#000000" stroke-width="1" fill="none"></path></g></g><g stroke-linecap="round"><g transform="translate(32.943217571662785 62.42577596235799) rotate(0 30.34252664470256 0.22039838572774784)"><path d="M0.14 1.14 C10.51 1.17, 51.71 -0.4, 61.93 -0.7 M-1.25 0.69 C9.1 0.95, 51.19 0.53, 61.58 0.47" stroke="#000000" stroke-width="2" fill="none"></path></g></g><g stroke-linecap="round"><g transform="translate(32.943217571662785 96.93902847806407) rotate(0 31.52265233956433 -0.10749695128291137)"><path d="M-0.79 0.03 C9.36 0.23, 51.13 0.68, 61.72 0.81 M0.99 -0.99 C11.43 -1.11, 53.69 -0.87, 63.84 -0.89" stroke="#000000" stroke-width="2" fill="none"></path></g></g><g stroke-linecap="round" transform="translate(32.42809439978669 113.93809314997895) rotate(0 1.802931101566685 1.802931101566685)"><path d="M2.96 -0.12 C3.45 0.15, 4.09 0.83, 4.26 1.3 C4.43 1.77, 4.29 2.45, 3.98 2.68 C3.68 2.91, 2.7 2.61, 2.43 2.68 C2.15 2.75, 2.81 3.18, 2.33 3.11 C1.85 3.04, -0.02 2.43, -0.46 2.25 C-0.91 2.08, -0.53 2.25, -0.34 2.07 C-0.16 1.89, 0.32 1.56, 0.66 1.18 C0.99 0.79, 1.42 -0.13, 1.65 -0.24 C1.88 -0.34, 1.8 0.42, 2.05 0.55 C2.3 0.68, 3.01 0.55, 3.15 0.57 M2 -1.31 C2.2 -1.29, 1.08 0.83, 1.14 1.26 C1.2 1.69, 2.09 1.14, 2.36 1.26 C2.64 1.39, 2.79 1.53, 2.79 1.99 C2.8 2.44, 2.41 3.7, 2.39 3.98 C2.37 4.26, 3.2 3.68, 2.68 3.65 C2.15 3.62, -0.51 3.91, -0.77 3.79 C-1.03 3.68, 1.1 3.65, 1.13 2.96 C1.15 2.26, -0.69 0.24, -0.63 -0.36 C-0.56 -0.97, 1.05 -0.81, 1.51 -0.66 C1.97 -0.51, 2.23 0.18, 2.13 0.53" stroke="#000000" stroke-width="2" fill="none"></path></g><g stroke-linecap="round" transform="translate(33.20077915760112 132.22496575158442) rotate(0 1.802931101566685 1.802931101566685)"><path d="M0.54 -0.95 C0.98 -1.24, 2.87 -0.78, 3.37 -0.51 C3.88 -0.24, 3.61 0.22, 3.59 0.66 C3.58 1.09, 3.35 1.55, 3.28 2.12 C3.21 2.69, 3.47 3.97, 3.18 4.07 C2.9 4.18, 1.94 2.81, 1.57 2.75 C1.2 2.7, 1.1 4, 0.96 3.74 C0.81 3.48, 0.92 1.68, 0.71 1.18 C0.49 0.68, -0.4 0.86, -0.32 0.75 C-0.25 0.63, 0.75 0.67, 1.16 0.49 C1.56 0.32, 1.88 -0.15, 2.1 -0.32 M2.69 0.08 C2.71 0.36, 1.7 1.33, 1.99 1.67 C2.27 2.02, 4.17 2.24, 4.39 2.17 C4.62 2.1, 3.45 1.24, 3.33 1.26 C3.21 1.28, 3.82 1.69, 3.68 2.29 C3.54 2.89, 3.19 4.69, 2.5 4.87 C1.8 5.06, 0.16 4.14, -0.5 3.38 C-1.16 2.62, -1.55 0.64, -1.48 0.32 C-1.42 0.01, -0.7 1.71, -0.09 1.51 C0.52 1.3, 1.74 -0.57, 2.19 -0.9 C2.64 -1.23, 2.95 -0.72, 2.6 -0.49" stroke="#000000" stroke-width="2" fill="none"></path></g><g stroke-linecap="round" transform="translate(33.71590232947733 153.86013897038526) rotate(0 1.802931101566685 1.802931101566685)"><path d="M1.01 0.72 C1.19 0.9, 2.02 0.54, 2.37 0.66 C2.72 0.79, 3.01 1.01, 3.11 1.45 C3.22 1.89, 3.02 2.95, 3 3.31 C2.97 3.67, 3.44 3.49, 2.96 3.59 C2.49 3.7, 0.52 3.99, 0.17 3.93 C-0.17 3.87, 1.03 3.8, 0.9 3.24 C0.78 2.68, -0.58 1.15, -0.59 0.58 C-0.59 0.01, 0.33 -0.12, 0.87 -0.16 C1.41 -0.2, 2.46 0.15, 2.63 0.33 C2.81 0.52, 2.14 1.01, 1.93 0.94 M2.61 -0.57 C3.31 -0.49, 4.53 1.47, 4.85 1.92 C5.17 2.36, 5.05 1.7, 4.52 2.09 C3.99 2.48, 2.34 3.83, 1.68 4.25 C1.03 4.68, 0.56 4.96, 0.59 4.62 C0.61 4.27, 1.86 2.87, 1.84 2.18 C1.82 1.49, 0.94 0.82, 0.44 0.5 C-0.06 0.18, -1.44 0.22, -1.15 0.26 C-0.86 0.31, 1.73 0.59, 2.19 0.76 C2.65 0.92, 1.65 1.59, 1.62 1.25 C1.59 0.92, 1.79 -1.19, 1.99 -1.26" stroke="#000000" stroke-width="2" fill="none"></path></g><g stroke-linecap="round"><g transform="translate(48.39691272794903 114.96833949373138) rotate(0 23.308003993496527 -0.31896941841756643)"><path d="M-0.28 -0.31 C7.52 -0.07, 39.11 0.99, 46.89 0.88 M1.78 -1.52 C9.45 -1.56, 38.91 -1, 46.22 -0.78" stroke="#000000" stroke-width="2" fill="none"></path></g></g><g stroke-linecap="round"><g transform="translate(47.88178955607282 135.05814319690353) rotate(0 23.871079923199773 -0.2569473925567536)"><path d="M0.81 1.04 C8.29 1.24, 38.24 0.71, 45.63 0.34 M-0.22 0.54 C7.58 0.44, 40.02 -1.43, 47.96 -1.6" stroke="#000000" stroke-width="2" fill="none"></path></g></g><g stroke-linecap="round"><g transform="translate(48.91203589982524 156.1781932438281) rotate(0 23.065577062269426 0.6959918586819356)"><path d="M-0.39 -0.62 C7.43 -0.52, 38.78 -0.1, 46.52 0.09 M1.61 1.67 C9.26 2.02, 37.56 2.21, 45.38 1.68" stroke="#000000" stroke-width="2" fill="none"></path></g></g><g stroke-linecap="round"><g transform="translate(12.338290696614422 176.2679969470003) rotate(0 52.470420454996884 0.006629522144805833)"><path d="M0.84 0.85 C18.45 0.85, 87.7 -0.55, 105.11 -0.83 M-0.17 0.25 C17.29 0.45, 86.48 0.31, 103.91 0.27" stroke="#000000" stroke-width="1" fill="none"></path></g></g><g stroke-linecap="round"><g transform="translate(31.397848056034263 193.2670616189152) rotate(0 31.12854490022795 -0.6179079914614647)"><path d="M-0.05 0.17 C10.52 0.38, 53.07 0.37, 63.8 0.39 M-1.54 -0.79 C8.84 -0.88, 51.92 -1.96, 62.81 -1.53" stroke="#000000" stroke-width="2" fill="none"></path></g></g><g stroke-linecap="round"><g transform="translate(13.368537040366846 209.2358799470777) rotate(0 51.39742820751411 0.06341310292481239)"><path d="M0.21 1.02 C17.58 0.86, 86.84 -0.72, 103.94 -0.89 M-1.14 0.51 C16.13 0.47, 85.46 0.04, 103.2 0.17" stroke="#000000" stroke-width="1" fill="none"></path></g></g><g stroke-linecap="round" transform="translate(128.0586711816369 23.90198800913595) rotate(0 148.73569188671166 76.33524927519062)"><path d="M0.4 -1.04 C116.85 -0.53, 231.98 0.03, 298.13 -0.95 M0.39 -0.29 C80.9 0.54, 162.22 1.69, 297.54 -0.26 M297.31 -0.66 C297.17 55.17, 297.53 115.16, 297.97 151.37 M297.24 -0.34 C298.04 40.22, 298.23 82.68, 298.17 152.43 M297.15 152.3 C205.45 152.58, 111 153.47, 1.24 151.9 M296.74 152.76 C203.83 151.8, 111.04 152.82, -0.73 152.32 M-0.73 154.41 C1.73 108.94, -1.57 60.95, 1.25 -1.96 M-0.29 152.29 C-1.32 101.88, -1.33 53.16, -0.97 -0.51" stroke="#000000" stroke-width="1" fill="none"></path></g><g stroke-linecap="round" transform="translate(128.32099162588156 186.80298388505815) rotate(0 148.7356918867116 70.56419950180853)"><path d="M-1.43 -0.75 C66.2 -0.07, 130.47 -1.46, 297.43 0.82 M-0.66 0.16 C72.39 -0.47, 145.74 -0.5, 297.89 -0.24 M296.16 1.08 C296.08 51.89, 295.75 106.48, 297.38 142.24 M297.97 0.66 C297.42 30.13, 296.99 59.27, 298.14 141.49 M296.74 140.45 C206.82 140.52, 116.07 140.58, 0.07 141.79 M297.01 140.86 C222.95 140.26, 148.46 139.78, 0.47 140.78 M0.8 143.01 C-2.19 113.14, -1.71 80.36, 0.42 0.11 M0.3 141.66 C1.39 92.71, 0.44 46.48, -0.22 0.37" stroke="#000000" stroke-width="1" fill="none"></path></g><g stroke-linecap="round"><g transform="translate(138.02684806293325 34.91944666741085) rotate(0 39.813119571149514 -0.18995185528382308)"><path d="M0.6 0.04 C14.01 0.08, 67.08 0.87, 80.16 0.8 M-0.54 -0.98 C12.77 -1.33, 66.35 -1.19, 79.43 -0.9" stroke="#000000" stroke-width="4" fill="none"></path></g></g><g stroke-linecap="round" transform="translate(141.69933428235822 56.954363983960775) rotate(0 54.038011514396146 54.038011514396146)"><path d="M77.63 5.46 C85.35 8.59, 93.49 15.98, 98.54 23.58 C103.6 31.19, 107.52 41.77, 107.97 51.08 C108.42 60.39, 105.36 71.39, 101.24 79.43 C97.13 87.47, 90.65 94.61, 83.25 99.31 C75.85 104.02, 65.66 107.16, 56.86 107.67 C48.07 108.18, 38.45 106.33, 30.48 102.37 C22.5 98.41, 13.96 91.61, 9 83.91 C4.04 76.21, 1.11 65.12, 0.74 56.16 C0.37 47.19, 2.69 37.96, 6.78 30.13 C10.86 22.31, 17.94 14.19, 25.25 9.22 C32.56 4.25, 41.53 0.77, 50.61 0.32 C59.69 -0.13, 74.57 5.09, 79.74 6.5 C84.91 7.9, 82.07 7.77, 81.63 8.78 M77.42 5.42 C85.06 8.52, 93.07 16.77, 98.37 24.36 C103.68 31.94, 108.68 41.77, 109.26 50.93 C109.84 60.1, 106.25 71.44, 101.87 79.35 C97.49 87.27, 90.36 93.85, 82.98 98.44 C75.6 103.04, 66.54 106.46, 57.59 106.93 C48.64 107.39, 37.38 105.15, 29.28 101.23 C21.17 97.31, 13.91 90.93, 8.97 83.38 C4.04 75.83, 0.22 65.18, -0.33 55.93 C-0.89 46.67, 1.49 35.84, 5.63 27.85 C9.76 19.87, 16.7 12.41, 24.48 8.01 C32.26 3.61, 43.43 1.74, 52.3 1.45 C61.18 1.16, 73.22 5.11, 77.71 6.27 C82.2 7.43, 79.49 7.59, 79.24 8.41" stroke="#000000" stroke-width="2" fill="none"></path></g><g stroke-linecap="round"><g transform="translate(195.73734579675443 57.47900487245005) rotate(0 0.1254076905408965 27.3538920522291)"><path d="M-1.18 1.15 C-1.17 10.27, -0.9 45.36, -0.84 54 M0.4 0.71 C0.87 9.52, 1.22 43.24, 1.43 52.13" stroke="#000000" stroke-width="1" fill="none"></path></g></g><g stroke-linecap="round"><g transform="translate(196.26198668524364 112.56629816382474) rotate(0 22.879075594333585 -12.686147396266449)"><path d="M-1.13 0.66 C6.3 -3.54, 36.73 -21.46, 44.68 -26.03 M0.48 -0.04 C8.27 -3.97, 39.25 -20.21, 46.89 -24.51" stroke="#000000" stroke-width="1" fill="none"></path></g></g><g stroke-linecap="round"><g transform="translate(195.73734579675443 112.56629816382474) rotate(0 -25.963592962294342 1.153055635953507)"><path d="M-0.53 0.7 C-9.09 1.16, -43.53 2.21, -52.22 2.28 M1.39 0.03 C-7.28 0.18, -44.72 0.17, -53.32 0.53" stroke="#000000" stroke-width="1" fill="none"></path></g></g><g stroke-linecap="round"><g transform="translate(136.45292539746538 201.7552492070028) rotate(0 42.16696362586487 0.17273593693971634)"><path d="M-1.15 1.02 C12.67 0.77, 69.12 -0.46, 83.36 -0.67 M0.45 0.51 C14.58 0.34, 71.66 0.44, 85.48 0.51" stroke="#000000" stroke-width="4" fill="none"></path></g></g><g stroke-linecap="round"><g transform="translate(134.87900273199762 212.2480669767885) rotate(0 25.61524937434274 0.2862680375855291)"><path d="M-0.71 0.42 C8.11 0.41, 43.13 -0.34, 51.94 -0.37 M1.12 -0.4 C9.92 -0.22, 42.82 0.63, 51.27 0.97" stroke="#000000" stroke-width="4" fill="none"></path></g></g><g stroke-linecap="round" transform="translate(135.92828450897616 226.4133709659991) rotate(0 140.60375811512773 47.21767996403548)"><path d="M1.46 0.49 C107.16 0.68, 213.84 -1.32, 282.59 0.97 M0.65 -0.72 C99.73 -1.08, 199.05 -0.87, 281.26 -0.46 M280.48 -1.8 C281.36 20.85, 282.63 43.45, 280.39 94.68 M280.57 0.26 C282.69 31.04, 282.57 60.83, 281.89 94.37 M280.43 94.71 C208.34 94.75, 132.52 96.93, -1.48 94.3 M281.17 94.78 C215.39 95.58, 149.5 95.43, -0.57 95.19 M0.28 92.68 C-1.65 59.61, -0.31 19.82, 0.19 1.71 M-0.09 93.82 C0.28 62.46, 0.34 31.56, 1 0.81" stroke="#000000" stroke-width="1" fill="none"></path></g><g stroke-linecap="round"><g transform="translate(136.45292539746538 298.2891726890309) rotate(0 140.31035953935037 -21.87826499193622)"><path d="M0.35 -0.74 C3.59 -4.99, 11.33 -27.41, 19.55 -24.84 C27.78 -22.27, 40.09 20.72, 49.68 14.67 C59.27 8.62, 69.93 -55.83, 77.12 -61.17 C84.3 -66.51, 87.8 -20.48, 92.79 -17.36 C97.78 -14.24, 101.13 -45.49, 107.08 -42.47 C113.02 -39.46, 121.11 3.32, 128.45 0.75 C135.79 -1.82, 144.67 -53.77, 151.11 -57.9 C157.56 -62.02, 160.93 -23.82, 167.13 -23.98 C173.33 -24.15, 181.66 -65.71, 188.32 -58.9 C194.97 -52.08, 201.91 9.93, 207.06 16.89 C212.22 23.84, 212.23 -9.04, 219.23 -17.17 C226.23 -25.3, 242.54 -26.37, 249.06 -31.92 C255.57 -37.47, 253.89 -52.47, 258.32 -50.49 C262.74 -48.51, 271.84 -26.25, 275.61 -20.04 C279.38 -13.84, 280.08 -14.35, 280.93 -13.26 M-0.93 1.48 C2.25 -2.64, 10.89 -25.73, 19.23 -23.4 C27.57 -21.08, 39.42 21.56, 49.11 15.43 C58.8 9.29, 70.29 -54.31, 77.36 -60.23 C84.44 -66.15, 86.46 -23.41, 91.56 -20.1 C96.66 -16.8, 101.67 -43.67, 107.97 -40.39 C114.26 -37.12, 121.79 2.56, 129.33 -0.47 C136.87 -3.51, 147.11 -54.99, 153.2 -58.61 C159.3 -62.23, 160 -22.09, 165.89 -22.18 C171.77 -22.27, 181.57 -65.26, 188.52 -59.14 C195.47 -53.02, 202.6 7.6, 207.57 14.54 C212.54 21.47, 211.3 -9.74, 218.33 -17.52 C225.36 -25.3, 243.15 -26.57, 249.76 -32.15 C256.37 -37.73, 253.61 -52.94, 257.99 -51.02 C262.37 -49.11, 272.11 -27.1, 276.03 -20.66 C279.96 -14.21, 280.46 -13.59, 281.55 -12.36" stroke="#000000" stroke-width="1" fill="none"></path></g></g><g stroke-linecap="round"><g transform="translate(135.92828450897616 281.10641004154536) rotate(0 141.07807945888277 3.8003427119383275)"><path d="M0.8 -0.38 C3.43 1.88, 8.67 14.44, 15.89 14.74 C23.12 15.04, 32.3 2.43, 44.15 1.44 C56 0.44, 76.34 3.43, 86.97 8.78 C97.6 14.14, 101.75 34.79, 107.95 33.56 C114.15 32.33, 117.58 2.31, 124.17 1.4 C130.76 0.49, 140.38 32.2, 147.5 28.1 C154.63 24.01, 160.72 -22.82, 166.93 -23.16 C173.13 -23.5, 175.63 25.89, 184.73 26.06 C193.83 26.23, 211.39 -14.82, 221.54 -22.14 C231.69 -29.47, 239.37 -25.47, 245.62 -17.89 C251.87 -10.31, 252.95 20.18, 259.01 23.32 C265.08 26.46, 278.05 4.6, 282.02 0.96 M-0.24 -1.63 C2.23 0.79, 7.23 12.77, 15.03 12.92 C22.82 13.07, 34.56 -0.23, 46.54 -0.7 C58.51 -1.17, 76.85 4.83, 86.88 10.09 C96.91 15.34, 100.26 32.38, 106.69 30.84 C113.13 29.29, 118.63 1.48, 125.49 0.82 C132.36 0.17, 141.21 30.93, 147.91 26.91 C154.61 22.89, 159.29 -22.88, 165.67 -23.27 C172.05 -23.65, 176.79 24.44, 186.2 24.59 C195.6 24.74, 212.19 -15.41, 222.11 -22.38 C232.02 -29.34, 239.24 -24.77, 245.71 -17.21 C252.18 -9.64, 254.79 20.18, 260.9 23.02 C267.02 25.86, 278.77 3.45, 282.4 -0.19" stroke="#000000" stroke-width="1" fill="none"></path></g></g><g stroke-linecap="round"><g transform="translate(282.66416350427266 60.981572882072214) rotate(0 -0.1504131969612672 50.25834035085515)"><path d="M0.32 -0.25 C0.52 16.69, 0.81 83.91, 0.6 100.92 M-0.97 -1.43 C-0.83 15.69, -0.45 84.53, -0.03 101.95" stroke="#000000" stroke-width="1" fill="none"></path></g></g><g stroke-linecap="round"><g transform="translate(283.28916350427266 162.73157288207221) rotate(0 60.028727184142895 -1.0146808888390808)"><path d="M-1.1 -0.5 C18.76 -0.54, 98.77 -1.21, 118.98 -1.15 M0.53 -1.81 C20.76 -1.66, 101.34 -0.7, 121.15 -0.22" stroke="#000000" stroke-width="1" fill="none"></path></g></g><g stroke-linecap="round" transform="translate(293.91416350427266 85.35657288207221) rotate(0 5.625 37.8125)"><path d="M0 0 C0 0, 0 0, 0 0 M0 0 C0 0, 0 0, 0 0 M-0.38 6.03 C1.63 4.32, 2.3 4.19, 5.44 0.85 M-0.04 6.03 C1.91 4.26, 3.22 2.02, 5.2 0.52 M0.59 12.24 C1.56 9.16, 6.15 8, 10.55 -0.85 M0.25 11.35 C3.45 8.15, 6.53 5.7, 10.29 -0.11 M1.74 17.58 C3.63 13.73, 6.35 11.28, 13.64 4.57 M0.13 17.63 C4.46 14.47, 8.2 10.14, 13.66 3.46 M0.17 23.15 C5.37 18.74, 9.4 12.48, 15.57 7.56 M-0.11 23.76 C5.69 18.01, 9.99 13.72, 14.25 7.81 M0.17 30.52 C5.02 25.96, 7.79 17.84, 15.02 14.99 M-0.71 30.54 C3.55 25.88, 8.15 22.21, 13.34 13.65 M-0.97 36.62 C5.39 30.54, 11 22.09, 14.61 21.96 M-0.17 36.68 C4.48 32.01, 7.13 28.64, 13.3 21.23 M1.1 43.16 C2.99 38.28, 3.79 34.98, 12.84 26.94 M-0.62 42.85 C4.6 35.93, 10.79 29.72, 12.97 27.48 M1.79 47.98 C3.81 41.29, 11.76 36.17, 12.63 33.52 M-0.29 48.94 C4.33 44.05, 7.64 38.86, 12.83 32.74 M0.04 54.76 C5.58 48.01, 10.89 42.62, 13.27 37.76 M-0.35 54.72 C5.01 50.3, 8.34 46.03, 14.59 37.96 M-0.93 60.2 C3.65 58.06, 6.17 54.59, 12.41 45.52 M-0.64 60.87 C2.32 57.19, 5.94 54.31, 13.7 44.96 M-1.11 67.73 C3.47 61.62, 7.98 56.13, 12.57 52.19 M-0.56 67.62 C4.33 61.77, 8.53 57.05, 13.49 50.11 M0.26 74.89 C4.39 68.1, 11.62 62.09, 15.84 55.89 M0.5 72.06 C3.13 67.97, 7.82 63.73, 14.48 56.35 M0.74 76.44 C7.12 71, 8.63 68.58, 14.34 64.97 M1.72 77.95 C4.59 73.93, 8.86 70.91, 14.39 62.89 M6.04 76.41 C8.82 74.14, 11.88 70.24, 13.24 68.67 M7.25 77.57 C8.1 75.26, 9.71 73.52, 13.54 69.17" stroke="#444" stroke-width="0.5" fill="none"></path><path d="M-0.91 1.12 C4.48 -0.54, 8.76 -1.04, 10.96 0.23 M0.35 0.28 C2.51 -0.41, 4.94 -0.55, 11.61 0.21 M10.83 0.18 C9.75 14.79, 9.29 33.54, 10.03 75.47 M10.68 0.48 C12.62 24.79, 12.36 49.44, 10.65 75.57 M12.24 75.62 C8.48 75.22, 3.47 75.29, -0.84 75 M11.21 75.6 C6.78 75.63, 3.55 76.26, -0.35 75.65 M-1.67 75.07 C1.49 52.89, -1.83 26.42, 0.69 1.54 M-0.66 75.32 C-0.57 47.03, -1.01 20.04, 0.49 -0.28" stroke="#000000" stroke-width="1" fill="none"></path></g><g stroke-linecap="round" transform="translate(317.78916350427266 115.54407288207221) rotate(0 5.9375 22.8125)"><path d="M0 0 C0 0, 0 0, 0 0 M0 0 C0 0, 0 0, 0 0 M-0.69 7.01 C1.2 4.64, 2.54 1.69, 4.69 0.1 M-0.28 6.48 C1.6 4.29, 4.01 2.03, 5.02 0.37 M-1.14 13.03 C3.69 7.91, 7.53 5.98, 9.49 0.07 M0.61 11.69 C2.33 9.31, 5.42 4.79, 10.34 -0.14 M-1.94 18.87 C5.76 13.02, 6.67 8.3, 14.49 1.44 M0.58 17.56 C6.24 11.38, 10.37 6.14, 14.79 2.16 M-0.93 23.01 C4.79 21.09, 8.08 14.17, 12.52 8.9 M-0.41 23.13 C4.1 21.45, 6.09 16.62, 15 7.76 M-0.97 29.46 C4.04 26.36, 6.56 20.84, 14.1 13.93 M-0.76 29.66 C4.53 25.47, 9.35 18.72, 14.32 13.98 M-1.34 36.1 C3.58 31.47, 9.18 24.52, 12.94 20.6 M0.71 37.42 C4.05 30.26, 9.73 25.83, 13.71 19.89 M1 41.14 C4.96 35.38, 9.54 32.6, 12.62 26.49 M-0.13 42.43 C3.64 38.91, 7.68 34.89, 13.49 26.86 M2.46 45.12 C6.1 43.28, 6.48 40.42, 13.72 32.82 M1.27 45.99 C5.43 42.53, 10.97 36.51, 14.36 33.21 M7.12 48.07 C8.04 44.49, 10.29 41.65, 14.44 37.68 M6.53 47.32 C7.96 45.39, 9.68 44.04, 13.71 38.5" stroke="#444" stroke-width="0.5" fill="none"></path><path d="M-0.62 0.41 C5.28 0.97, 9.88 -0.5, 11.1 -0.36 M0.39 0.29 C3.59 0.14, 7.88 -0.07, 11.93 0.56 M10.29 -1.71 C10.35 12.46, 11.87 27.09, 12.96 45.02 M12.02 0.11 C11.45 11.7, 11.48 25.12, 11.72 45.17 M12.68 46.3 C8.01 46.13, 2.9 45, 0.67 44.54 M11.43 45.95 C7.38 45.06, 1.91 45.42, 0.17 45.7 M1.2 45.53 C-0.9 34.1, -1.64 24.81, 0.29 -1.73 M0.8 45.2 C0.11 30.02, -0.15 16.28, 0.94 -0.43" stroke="#000000" stroke-width="1" fill="none"></path></g><g stroke-linecap="round" transform="translate(344.72666350427266 67.70032288207221) rotate(0 5.9375 46.875)"><path d="M0 0 C0 0, 0 0, 0 0 M0 0 C0 0, 0 0, 0 0 M-0.77 6.51 C1.06 4.28, 2.13 2.86, 4.52 -0.38 M-0.32 6.18 C1.89 4.44, 3.18 2.23, 4.89 0.22 M1.06 13.09 C3.52 8.64, 6.16 4.36, 12.14 0.69 M0.51 12.78 C4.08 7.51, 7.69 3.95, 10.16 0.7 M-0.74 18.07 C3.92 11.77, 9.3 5.94, 15.72 0.12 M0.52 18.44 C5.69 13.43, 10.15 6.96, 13.85 1.23 M0.21 25.05 C4.67 16.41, 10.09 12.03, 12.07 7.82 M0.7 24.56 C2.92 20.76, 6.3 15.75, 14.73 8.07 M-1.19 29.94 C2.73 25.68, 7.44 20.68, 15.61 11.89 M0.06 29.78 C5.07 24.06, 10.5 19.04, 14.79 13.75 M-0.93 35.57 C5.78 29.59, 10.04 26.93, 15.32 22.13 M-0.82 36.43 C4.74 31.71, 8.99 25.88, 13.67 20.25 M0.31 41.33 C2.88 35.82, 7.91 33.68, 12.89 26.12 M0.88 42.9 C5.33 37.47, 8.54 33.28, 14.04 27.12 M1.17 50.41 C5.46 43.35, 10.58 37.94, 12.72 30.6 M-0.24 48.96 C3.56 45.06, 7.91 39.35, 14.07 31.66 M0.07 55.67 C5.63 50.07, 11.82 41.68, 13.86 36.81 M-0.65 54.37 C4.48 49.6, 8.7 44.72, 13.08 38.23 M-0.04 62.7 C4.92 59.1, 8.54 55.39, 14.55 46.21 M0.37 61.9 C3.11 55.38, 7.55 51.57, 14.58 44.87 M0.83 67.59 C5.73 63.22, 9.62 56.03, 12.91 51.64 M-0.12 68.05 C3.27 62.67, 7.69 57.71, 14.61 50.31 M-0.36 72.26 C3.74 68.54, 10.43 63.61, 15.5 59.08 M0.82 72.26 C4.41 67.73, 9.41 60.93, 14.86 56.72 M0.37 77.81 C7.44 73.77, 11.43 65.51, 13.22 62.96 M0.57 79.11 C5.57 73.07, 10.1 67.53, 14.21 62.85 M0.48 84.28 C2.49 82.23, 8.29 74.52, 15.35 67.49 M1.09 84.09 C4.3 80.49, 10.22 74.06, 13.28 68.35 M1.64 91.76 C3.93 89.1, 4.52 84.18, 16.03 74.49 M0.22 91.52 C4.75 86.93, 7.7 82.38, 14.62 75.4 M2.16 93.96 C7.07 92.14, 10.22 86.01, 13.05 80.44 M1.72 95.99 C5.85 91.19, 9.64 85.64, 13.94 80.76 M7.94 94.68 C8.1 93.76, 9.45 92.35, 13.98 87.88 M7.31 95.45 C9.51 92.45, 12.67 88.72, 14.05 87.47" stroke="#444" stroke-width="0.5" fill="none"></path><path d="M-0.17 0.01 C3.85 -0.22, 9.63 -0.18, 11.86 -0.69 M0.58 0.44 C3.78 0.18, 8.3 -0.44, 11.3 0.36 M10.16 0.95 C9.87 35.34, 10.27 67.13, 10.03 92.94 M11.82 0.22 C11.84 22.68, 10.84 45.57, 12.32 93.91 M12.95 93.35 C10.12 94.47, 6.42 92.53, 0.77 93.8 M11.36 93.66 C7.24 94.26, 3.02 93.79, -0.44 93.42 M0.7 94.55 C0.31 67.45, -1.68 40.21, -1.35 -1.12 M-0.3 92.91 C-1.63 65.35, -1.61 37.85, 0.24 -0.67" stroke="#000000" stroke-width="1" fill="none"></path></g><g stroke-linecap="round" transform="translate(368.22666350427266 104.13782288207221) rotate(0 5.625 28.75)"><path d="M0 0 C0 0, 0 0, 0 0 M0 0 C0 0, 0 0, 0 0 M-0.15 6.36 C0.85 4.18, 2.67 2.17, 4.25 0.92 M-0.48 6.66 C2.07 3.66, 4.13 1.6, 4.85 0.31 M1.19 12.52 C4.23 7.43, 7.46 4.2, 11.35 0.69 M0.87 12.34 C2.67 8.92, 6.2 4.81, 11.36 0.58 M-0.5 17.17 C4.57 11.26, 10.12 8.11, 11.94 3.52 M-0.13 19.18 C4.13 14.49, 6.93 9.8, 13.04 3.15 M1.24 23.49 C1.62 20.12, 6.27 14.32, 13.63 7.21 M0.75 23.26 C4.56 18.91, 7.19 16.22, 13.88 7.76 M-0.54 29.48 C2.94 26.55, 5.68 23.6, 11.8 15.83 M-0.69 30.38 C3.94 25.55, 9.29 20.72, 13.65 15.12 M-1.56 37.94 C3.05 31.66, 11.01 26.97, 16.03 20.68 M-0.71 37.28 C4.53 31.66, 8.64 25.8, 14.15 20.6 M-1.06 40.82 C3.99 35.18, 12.4 29.34, 13.36 26.65 M0.52 43.52 C3.3 38.51, 7.32 34.53, 14.36 27.2 M1.37 49.37 C4.04 44.86, 8.36 38.34, 11.94 32.84 M-0.08 48.28 C3.68 45.19, 5.63 42.1, 13 33.82 M1.38 54.87 C6.87 50, 9.56 42.57, 12.14 38.83 M0.08 54.63 C5 49.19, 9.81 42.57, 13.57 37.99 M3.55 60.11 C6.92 56.72, 10.18 51.43, 15.46 44.86 M2.83 57.88 C5.6 53.07, 10.84 48.69, 14.25 45.68 M7.09 59.51 C10.53 55.82, 12.42 52.51, 14.67 50.53 M7.35 58.71 C8.6 57, 10.08 55.46, 13.94 50.77" stroke="#444" stroke-width="0.5" fill="none"></path><path d="M0.01 -0.75 C3.01 0.35, 6.2 0, 10.59 0.33 M0.41 -0.12 C3.87 0.33, 6.95 -0.66, 11.59 0.32 M12.2 -1.42 C12.91 12.64, 11.25 25.48, 10.44 56.45 M11.47 0.36 C10.48 14.18, 10.15 30.08, 11.41 56.67 M10.87 58.28 C7.56 57.32, 1.27 58.33, 0.04 58.09 M11.17 57.07 C7.82 56.94, 3.4 56.99, -0.32 57.44 M0.8 58.48 C0.41 35.13, 0.26 13.44, -1.12 -0.06 M-0.84 56.51 C-1.05 35.36, -0.72 15.4, -0.67 0.24" stroke="#000000" stroke-width="1" fill="none"></path></g><g stroke-linecap="round" transform="translate(17.928450478090326 16.815304376723873) rotate(0 11.93397404681292 11.93397404681292)"><path d="M5.56 0.85 C5.56 0.85, 5.56 0.85, 5.56 0.85 M5.56 0.85 C5.56 0.85, 5.56 0.85, 5.56 0.85 M4.93 7.9 C5.48 7.17, 9.64 2.98, 11.5 -1.07 M3.46 8.44 C5.05 7.34, 6.69 5.42, 11.49 -0.78 M3.89 15.8 C5.62 11.77, 13.1 5.34, 14.91 1.48 M1.99 16.32 C7.44 10.25, 11.77 4.24, 15.7 1.03 M2.97 18.84 C10.81 14.36, 16.56 8.48, 20.04 1.15 M3.16 20.71 C7.94 16.59, 11.1 13.02, 20.38 3.54 M6.29 24.98 C12.15 18.14, 15.12 12.7, 23.98 6.36 M6.68 24.13 C13.5 16.26, 19.01 10.32, 24.07 3.83 M8.88 24.58 C14.71 18.29, 20.25 12.39, 24.41 11.22 M11.3 26.28 C13.04 21.85, 15.83 19.59, 24.49 9.69" stroke="#444" stroke-width="0.5" fill="none"></path><path d="M5.6 0.81 C7.75 -0.51, 12.45 -1.05, 15.22 -0.54 C17.99 -0.03, 20.89 1.65, 22.23 3.89 C23.57 6.13, 23.59 10.34, 23.26 12.91 C22.92 15.49, 21.91 17.52, 20.22 19.35 C18.53 21.19, 15.72 23.47, 13.11 23.94 C10.5 24.41, 6.65 23.6, 4.55 22.18 C2.45 20.76, 0.96 17.84, 0.51 15.4 C0.06 12.95, 0.44 9.87, 1.83 7.52 C3.21 5.17, 7.71 2.4, 8.82 1.3 C9.94 0.19, 8.5 0.96, 8.51 0.9 M11.6 0.64 C14.05 0.38, 16.69 0.26, 18.8 1.58 C20.91 2.91, 23.52 5.8, 24.27 8.59 C25.01 11.39, 24.44 15.76, 23.26 18.35 C22.08 20.94, 19.54 23.19, 17.2 24.16 C14.86 25.12, 11.56 25.1, 9.23 24.12 C6.91 23.15, 4.64 20.79, 3.26 18.29 C1.88 15.8, 0.89 11.79, 0.97 9.14 C1.05 6.49, 2.06 3.97, 3.75 2.4 C5.45 0.84, 9.9 0.17, 11.15 -0.26 C12.4 -0.69, 11.29 -0.4, 11.24 -0.15" stroke="#000000" stroke-width="1" fill="none"></path></g></svg>