<svg version="1.1" xmlns="http://www.w3.org/2000/svg" viewBox="0 0 445.2480728976034 345.9999999999999" width="445.2480728976034" height="345.9999999999999">
  <!-- svg-source:excalidraw -->
  
  <defs>
    <style class="style-fonts">
      @font-face {
        font-family: "Virgil";
        src: url("https://excalidraw.com/Virgil.woff2");
      }
      @font-face {
        font-family: "Cascadia";
        src: url("https://excalidraw.com/Cascadia.woff2");
      }
    </style>
  </defs>
  <rect x="0" y="0" width="445.2480728976034" height="345.9999999999999" fill="#ffffff"></rect><g stroke-linecap="round" transform="translate(10.355913893080242 10) rotate(0 212 162.99999999999994)"><path d="M0.2 -0.84 C154.44 0.53, 309.75 0.1, 424.94 1.03 M-0.03 0.36 C142.45 2.6, 284.78 1.84, 423.66 -0.12 M424.1 1.36 C422.98 74.07, 423.96 151.53, 423.71 324.93 M423.8 0.55 C424.06 100.18, 423.91 198.4, 423.68 325.83 M424.21 325.13 C290.74 326.99, 156.37 327.02, 0.97 326.8 M423.58 326.49 C310.74 326.03, 198.37 326.6, 0.17 325.99 M0.8 325.65 C1.69 251.8, 1.18 179.67, -0.43 1.02 M-0.53 325.66 C1.59 239.92, 1.63 155.14, 0.23 -0.38" stroke="#000000" stroke-width="1" fill="none"></path></g><g stroke-linecap="round"><g transform="translate(46.35635551616815 30.01708254713276) rotate(0 43.11603640955127 0.171826444678004)"><path d="M-0.49 0.1 C13.93 0.21, 72.17 -0.18, 86.73 -0.19 M1.45 -0.9 C15.78 -0.51, 72.07 0.87, 86.27 1.24" stroke="#000000" stroke-width="4" fill="none"></path></g></g><g stroke-linecap="round"><g transform="translate(396.83003972669417 27.91181938923802) rotate(0 -16.42368359543275 -0.13235446376484106)"><path d="M-0.95 0.13 C-6.3 0.14, -27.12 0.89, -32.46 0.84 M0.75 -0.85 C-4.76 -1.24, -28.38 -1.15, -33.59 -0.84" stroke="#000000" stroke-width="2" fill="none"></path></g></g><g stroke-linecap="round"><g transform="translate(348.40898709511544 27.38550359976435) rotate(0 -14.462232833788903 -0.46888260889365085)"><path d="M-0.36 0.57 C-5.25 0.7, -24.75 0.36, -29.58 0.38 M1.66 -0.17 C-3.38 -0.38, -25.31 -1.36, -30.58 -1.54" stroke="#000000" stroke-width="2" fill="none"></path></g></g><g stroke-linecap="round"><g transform="translate(304.7247765687996 27.91181938923802) rotate(0 -16.48583383106029 0.30978657267986875)"><path d="M-1.02 1.04 C-6.49 0.8, -28.28 -0.17, -33.61 -0.42 M0.64 0.53 C-4.39 0.38, -25.64 0.89, -31.42 0.9" stroke="#000000" stroke-width="2" fill="none"></path></g></g><g stroke-linecap="round"><g transform="translate(258.40898709511544 28.43813517871172) rotate(0 -19.39261653035055 0.3025622822530494)"><path d="M0.36 0.06 C-6.01 -0.03, -31.88 -0.14, -38.09 0.01 M-0.91 -0.95 C-7.46 -0.89, -33.11 1.55, -39.14 1.55" stroke="#000000" stroke-width="2" fill="none"></path></g></g><g stroke-linecap="round" transform="translate(45.935302884589646 71.06971412608021) rotate(0 63.684210526315724 63.684210526315724)"><path d="M0 0 C0 0, 0 0, 0 0 M0 0 C0 0, 0 0, 0 0 M-1.02 6.07 C2.01 4.98, 3.1 2.3, 4.7 -0.35 M0.1 6.7 C0.59 5.24, 1.72 3.59, 5.37 -0.02 M-0.72 11.96 C4.02 9.04, 6.64 7.48, 11.16 0.46 M0.58 11.62 C3.64 8.4, 6.82 5.26, 11.17 -0.36 M1.32 20.28 C5.69 13.46, 10.68 4.49, 14.46 0.2 M-0.04 17.7 C3.98 13.6, 8.6 10.51, 15.29 -0.45 M0.96 22.28 C7.01 18.45, 9.55 14.56, 20.87 -1.06 M1.12 23.96 C6.86 16.45, 12.74 9.15, 21.23 0.92 M-1.66 30.84 C6.51 21.37, 16.99 13.58, 27.08 1.13 M0.34 31.26 C9.28 18.96, 19.86 7.35, 25.68 0.68 M-1.63 37.87 C10.12 26.63, 15.72 17.67, 30.26 0.93 M0.31 36.07 C7.85 28.71, 14.45 18.71, 31.23 0.29 M-1.54 41.65 C11.3 28.28, 20.93 18.97, 34.9 -0.6 M-0.11 41.53 C10.11 31.18, 21.25 18.41, 37.76 -0.4 M-1.52 48.09 C12.02 36.13, 22.68 25.43, 44 -0.46 M0.65 49.7 C11.73 35.71, 24.1 20.54, 43.21 -0.15 M-0.67 54.56 C14.16 38.56, 26.46 23.62, 45.74 -0.6 M0.94 55.26 C14.68 39.78, 28.76 22.08, 46.88 -0.37 M1.59 58.97 C19.08 38.47, 38.03 15.28, 52.7 -0.89 M-0.73 61.5 C13.35 45.95, 27.23 31.47, 52.23 -0.16 M0.06 67.56 C12.51 49.38, 27.21 36.79, 56.52 1.95 M0.35 68.01 C13.15 52.67, 26.45 37.38, 58.11 -0.33 M1.74 72.21 C19.18 51.28, 35.62 33.67, 63.09 1.42 M-0.32 72.92 C21.21 48.02, 43.9 24.69, 63.58 -0.46 M1.8 77.79 C26.24 52.52, 51.53 20.37, 67.26 -1.72 M-0.86 80.12 C21.46 54.33, 41.09 31.96, 69.19 1.14 M0.09 83.91 C22.58 60.4, 40.96 37.11, 76 -0.35 M0.07 85.95 C26.55 54.79, 51.04 26.98, 73.75 0.29 M1.85 92.04 C23.49 65.22, 46.7 40.22, 79.09 0.02 M-0.41 92.23 C17.46 71.12, 35.45 49.75, 79.6 1.02 M-1.78 99.31 C30.83 59.19, 64.8 25.4, 84.32 0.37 M-0.32 96.89 C27.1 68.78, 52.35 38.64, 85.42 0.46 M-1.77 101.79 C18.03 80.4, 38.65 55.42, 88.19 1.2 M0.81 103.28 C30.8 66.23, 64.18 31, 89.49 0.85 M-1.24 111.83 C21.37 85.83, 42.4 59.96, 95.07 1.58 M0.44 110.32 C21.84 85.07, 42.96 60.82, 96.49 0.47 M-0.93 113.88 C26.19 83.97, 52.77 53.77, 99.88 0.26 M1.15 116.25 C32.9 78.45, 63.26 42.42, 100.75 -0.32 M-0.52 121.54 C37.57 78.95, 78.94 34.19, 107.33 -1.33 M-0.02 122.61 C36.47 79.65, 73.75 36.39, 107.05 -0.2 M0.59 128.6 C28.14 96.88, 57.27 62.44, 110.55 -1.95 M1.14 127.18 C36.75 84.55, 73.47 41.7, 111.93 -0.86 M7.17 128.12 C47.14 83.87, 87.52 34.66, 117.65 -0.8 M4.58 127.93 C37.3 91.85, 68.95 56.87, 115.76 0.71 M11.62 125.54 C41.23 89.14, 74.02 49.62, 121.68 -0.17 M11 128.08 C53.14 80.64, 93.25 34.46, 121.32 0.4 M16.42 129.7 C52.88 85.15, 88.84 42.93, 128.62 1.87 M16.93 127.99 C45.62 90.98, 76.1 57.13, 127.41 0.26 M20.05 125.87 C53.89 90.91, 89.17 49.49, 131.89 3.52 M22.19 128.14 C59.83 83.38, 98.92 39.12, 129.93 1.43 M27.69 128.86 C66.06 80.42, 107.8 37.52, 131.74 7.34 M27.22 127.12 C62.2 86.22, 98.95 45.09, 130.85 8.12 M30.4 126.06 C57.55 99.23, 80.99 69.34, 131.64 13.49 M31.84 126.55 C66.22 87.05, 100.44 48.81, 129.22 15.79 M35.8 126.53 C71.17 89.46, 103.67 54.03, 130.43 20.11 M36.56 127.12 C71.98 87.6, 104.79 48.43, 130.92 21.42 M43.26 128.01 C66.95 101.06, 86.51 75.5, 131.54 28.89 M43.31 127.51 C61.88 103.56, 82.79 81.25, 130.42 27.97 M46.62 126.06 C72.69 99.88, 97.24 74.82, 129.53 32.84 M48.77 128.38 C77.43 93.73, 107.97 59.03, 131.01 32.09 M53.32 129.03 C79.85 96.97, 104.09 68.52, 128.79 37.36 M53.13 127.3 C78 98.38, 105.04 69.15, 129.96 40.08 M59.15 127.22 C83.74 96.25, 111.86 64.42, 130.05 44.09 M59.38 126.8 C88.04 95.87, 115.18 61.9, 130.77 45.63 M63.37 127.83 C81.06 110.41, 96.93 92.23, 132.35 52.18 M64.06 127.23 C79.17 109.92, 95.46 92.55, 129.64 52.02 M67.47 128.15 C80.15 111.6, 96.29 95.55, 129.04 57.62 M68.61 126.85 C88.86 106.71, 106.64 84.12, 131.05 57.34 M74.29 126.51 C88.97 110.91, 98.5 98.51, 132.27 63.04 M74.07 126.67 C88.15 114.42, 99.45 99.69, 130.94 63.22 M78.75 127.43 C94.5 110.88, 111.93 91.51, 129.71 68.81 M80.41 128.53 C100.5 104.97, 120.94 81.58, 130.9 69.81 M87.04 128.6 C99.26 109.08, 115.69 95.35, 129.05 74.8 M85.3 128.01 C101.15 110.61, 116.86 93.39, 129.4 76.46 M91.27 126.03 C98.05 116.47, 107.1 105.87, 129.99 79.72 M91.39 128.42 C101.93 114.71, 112.9 101.34, 131.26 80.94 M96.04 129.78 C110.92 110.83, 123.42 97.99, 130.22 86.45 M94.46 128.48 C109.71 111.03, 123.79 95.25, 130.25 87.74 M100.38 129.33 C111.08 115.87, 122.72 102.79, 131.91 93.81 M101.91 128.6 C109.14 118, 118.24 107.39, 131.23 93.67 M105.75 128.87 C112.92 117.99, 122.36 109.31, 128.46 101.66 M106.42 128.06 C114.06 116.83, 123.32 107.26, 129.42 99.92 M112.55 129.11 C116.46 122.46, 121.26 115.05, 130.96 106.69 M111.01 127.73 C115.41 123.66, 120.38 117.21, 130.51 105.74 M116.79 126.36 C120.31 120.5, 129.7 115.92, 130.21 111.74 M117.31 127.05 C121.01 123.13, 125.54 116.51, 131.23 112.64 M122.92 126.36 C125.26 124.21, 128.33 121.82, 129.28 117.67 M121.78 127.82 C123.76 124.71, 126.42 122.63, 130.64 117.99" stroke="#444" stroke-width="0.5" fill="none"></path><path d="M0.52 1.29 C50.07 0.29, 97.28 -1.67, 126.08 -1.13 M0.78 -0.56 C31.69 -0.44, 64.39 -0.25, 126.98 -0.75 M125.57 -1.34 C126.49 42.97, 126.43 91.48, 127.43 128.26 M127.67 -0.81 C125.18 48.53, 125.45 95.5, 126.9 126.61 M127.35 128.68 C83.03 129.8, 38.03 129.61, -1.49 127.37 M126.72 128.11 C96.73 127.57, 67.03 127.67, 0.87 127.66 M0.81 126.68 C1.58 89.23, 0.35 51.48, -1.45 -1.71 M-0.12 126.97 C1.28 96.36, 1.65 64.12, 0.32 0.62" stroke="#000000" stroke-width="1" fill="none"></path></g><g stroke-linecap="round"><g transform="translate(192.25109235827358 73.7012930734486) rotate(0 55.64890850877384 -0.6973160997760601)"><path d="M1.13 -0.28 C19.63 -0.15, 92.9 0.39, 111.04 0.35 M0.26 -1.47 C18.7 -1.68, 92.48 -1.92, 110.64 -1.58" stroke="#000000" stroke-width="4" fill="none"></path></g></g><g stroke-linecap="round"><g transform="translate(193.46161867406317 91.06971412608016) rotate(0 84.54613293744603 0.3950570802660991)"><path d="M-0.63 0.81 C27.53 0.89, 141.27 1.15, 169.73 1.15 M1.23 0.19 C29.15 -0.09, 140.6 -0.15, 168.63 -0.36" stroke="#000000" stroke-width="1" fill="none"></path></g></g><g stroke-linecap="round"><g transform="translate(193.7774081477478 105.22760886292235) rotate(0 84.5879340614539 0.36895780222488384)"><path d="M-0.15 0.38 C28.36 0.17, 142.36 -0.15, 170.87 -0.22 M-1.69 -0.47 C26.65 0.03, 141.1 0.92, 169.71 1.2" stroke="#000000" stroke-width="1" fill="none"></path></g></g><g stroke-linecap="round"><g transform="translate(194.48793446353693 120.28024044186975) rotate(0 84.55893370499336 0.10117193082564313)"><path d="M-0.9 -1.12 C27.3 -0.97, 141.39 -0.23, 170.02 -0.19 M0.83 0.9 C28.79 1.33, 140.77 1.4, 169.07 1.25" stroke="#000000" stroke-width="1" fill="none"></path></g></g><g stroke-linecap="round"><g transform="translate(195.23793446353648 136.28024044186975) rotate(0 84.46680003636027 -0.30859498305247257)"><path d="M0.21 -0.97 C28.39 -0.86, 141.59 -0.08, 170.08 0.24 M-1.15 1.14 C26.81 0.9, 140.48 -1.41, 169.16 -1.76" stroke="#000000" stroke-width="1" fill="none"></path></g></g><g stroke-linecap="round"><g transform="translate(166.1984607793263 241.7012930734486) rotate(0 60.060613873303396 0.32435523333603555)"><path d="M1.13 -0.64 C21.28 -0.85, 100.03 -1.07, 119.86 -0.95 M0.26 1.63 C20.43 1.53, 99.44 0.12, 119.39 0.09" stroke="#000000" stroke-width="4" fill="none"></path></g></g><g stroke-linecap="round"><g transform="translate(11.51425025301046 217.91181938923808) rotate(0 211.10978619579123 -0.08642447526565888)"><path d="M-0.04 0.35 C70.27 0.41, 351.21 0.7, 421.39 0.77 M-1.51 -0.51 C69.22 -0.82, 352.91 -0.83, 423.73 -0.95" stroke="#000000" stroke-width="1" fill="none"></path></g></g><g stroke-linecap="round" transform="translate(46.25109235827381 294.7539246523959) rotate(0 41.842105263157805 20.5263157894737)"><path d="M0 0 C0 0, 0 0, 0 0 M0 0 C0 0, 0 0, 0 0 M-0.2 6.88 C1.11 4.27, 4.31 2.36, 4.29 0.58 M-0.5 6.51 C1.08 4.51, 2.78 3.17, 5.12 0.03 M-1.25 12.51 C3.09 9.34, 5.52 5.07, 9.16 0.61 M0.93 12.68 C4.67 6.86, 8.41 2.58, 10.04 -0.32 M-1.52 20.39 C4.09 12.64, 10.22 6.67, 17.59 1.35 M0.02 17.8 C4.4 14.08, 8.08 8.8, 16.27 1.08 M1.32 22.78 C7.92 13.85, 15.6 5.52, 20.06 0.2 M1.15 23.25 C7.49 16.13, 12.46 9.27, 20.39 -0.66 M0.1 30.78 C11.11 18.13, 17.92 7.32, 28.18 1.45 M-0.18 29.77 C6.5 22.52, 13.01 14.55, 26.88 -0.58 M-0.38 35.13 C4.39 29.64, 11.04 20.45, 33.76 1.61 M-0.2 37.06 C10.94 23.26, 21.11 11.56, 31.25 0.5 M0.04 43.74 C12.15 30.17, 23.81 18.39, 38.24 1.62 M1.04 41.98 C14.93 25.46, 30.15 9.13, 36.59 -0.5 M4.62 42.91 C18.18 25, 32.82 12, 43.05 0.7 M6.27 41.34 C19.3 26.89, 34.19 9.06, 41.81 -0.47 M9.54 41.54 C20.61 30.08, 30.75 23.57, 47.39 0.36 M10.76 42.72 C19.88 31.17, 28.24 23.29, 48.37 -0.53 M14.86 44.02 C28.75 30.53, 37.47 16.18, 54.54 -1.73 M16.15 42.94 C31.17 25.45, 45.59 9.3, 52.45 0.52 M22.22 41.43 C31.5 30.74, 41.08 23.15, 57.67 0.26 M22.08 41.86 C34.74 27.9, 46.82 13.65, 57.74 -0.32 M28.66 43.47 C41.52 27.65, 53.56 13.12, 62.19 -1.78 M26.92 41.92 C36.68 32.48, 45.59 22.31, 63.59 0.31 M32.93 40.42 C42.42 28.87, 49.98 20.39, 67.52 2.03 M31.98 42.66 C43 30.01, 54.38 16.04, 67.78 -0.34 M37.33 43.07 C52.52 26.98, 67.75 6.95, 73.42 1.53 M38.22 42.27 C45.43 32.14, 54.28 22.29, 74.7 -0.59 M41.96 40.63 C57.98 28.13, 68.21 12.02, 77.79 -1.56 M42.49 42.09 C55.34 27.18, 67.28 13.33, 80.1 -0.82 M46.59 40.72 C58.13 30.84, 70.42 18.7, 86.36 1.04 M48.24 42.19 C59.85 27.81, 70.64 16.16, 84.64 -0.18 M52.97 43.26 C64.4 31.76, 72.79 19.95, 83.83 7.16 M53.7 41.82 C60.5 31.87, 69.42 24.19, 83.97 5.99 M58.59 40.44 C65.64 35.73, 74.51 26.03, 84.03 12.49 M58.69 41.05 C69.52 30.22, 79.22 19.32, 84.79 13.04 M63.05 42.62 C69.33 36.04, 73.81 28.87, 82.61 17.66 M64.74 41.21 C72.29 33.59, 77.69 25.89, 84.41 19.72 M69.84 42.32 C73.01 36.47, 76.54 32.9, 83.25 25.59 M69.86 42.47 C73.96 36.76, 79.42 31.04, 84.94 26.12 M76.24 40.53 C77.12 37.6, 80.03 36.95, 83.27 30.09 M74.9 42.09 C77.18 38.56, 80.11 35.94, 85.01 31.31 M80.52 41.48 C81.26 41.29, 82.2 39.77, 83.59 37 M80 41.69 C80.99 40.75, 81.94 40.19, 84.11 37.22" stroke="#444" stroke-width="0.5" fill="none"></path><path d="M1.31 1.02 C22.36 -0.65, 48.5 0.76, 81.83 -0.4 M-0.78 0.83 C23.8 0.92, 49.88 1.04, 82.99 -0.66 M82.42 0.97 C85.56 13.09, 85.11 25.66, 84.35 40.44 M83.2 -0.45 C84.65 17.2, 82.79 31.77, 84.35 41.76 M82.17 42.1 C58.93 41.68, 33.98 39.9, -1.5 39.5 M84.47 41.56 C66.82 39.64, 49.38 39.71, 0.57 40.32 M-0.53 42.44 C1.15 27.43, -1.6 10.94, 1.96 -0.6 M0.77 40.64 C0.1 30.92, 0.12 21.71, 0.78 -0.32" stroke="#000000" stroke-width="1" fill="none"></path></g><g stroke-linecap="round" transform="translate(180.83003972669462 294.7539246523961) rotate(0 41.842105263157805 20.5263157894737)"><path d="M0 0 C0 0, 0 0, 0 0 M0 0 C0 0, 0 0, 0 0 M0.2 6.02 C1.14 5.57, 2.19 2.85, 4.88 0.29 M-0.61 6 C1.31 5.05, 2.6 2.72, 4.65 0.45 M1.5 12.67 C2.17 9.79, 5.01 6.82, 10.96 -1.58 M0.62 12.07 C2.88 8.88, 5.03 6.93, 10.82 0.32 M1.23 20.41 C6.31 12.98, 11.53 5.74, 15.51 1.21 M-0.88 19.2 C6.36 11.11, 11.11 5.14, 15.05 -0.39 M1.1 25.77 C7.26 15.83, 13 8.73, 20.56 1.47 M-0.07 23.47 C7.09 15.75, 13.85 7.65, 21.44 -0.99 M0.14 29.07 C10.3 20.16, 19.18 8.61, 26.67 -1.22 M-0.74 30.66 C9.21 20.29, 16.3 11.28, 26.75 1.23 M-1.82 38.83 C4.69 29.25, 12.07 23.35, 31.58 0.28 M0.43 36.32 C8.64 27.95, 16.57 17.34, 32.35 -0.39 M0.87 42.58 C12.57 27.18, 28.15 10.28, 36.98 1.39 M0.28 42.25 C10.44 29.16, 21.96 18.98, 37.62 0.24 M4.2 41.06 C18.09 26.37, 30.23 13.7, 43.67 0.87 M6.29 41.71 C17.86 28.18, 30.73 12.65, 42.7 -1.1 M13.3 41.68 C18.7 33.27, 26.58 24.83, 46.3 1.91 M10.94 42.68 C23.14 29.3, 33.58 17.3, 47.76 1.01 M18.18 40.46 C29.81 28.49, 44.51 12.15, 52.49 -0.9 M16.07 42.8 C29.77 26.45, 41.81 11.97, 53.81 0.64 M20.37 42.39 C28.32 34.79, 35.27 25.61, 57.58 -0.38 M21.12 41.57 C31.94 29.91, 39.94 19.37, 57.96 0.44 M27.6 42.49 C41.11 25.93, 54.57 10.2, 63.79 -1.81 M26.39 42.36 C35.63 32.9, 42.23 24.33, 64.2 0.63 M32.97 40.84 C43.73 29.29, 50.91 20.33, 66.88 -1.78 M31.79 41.3 C43.65 28.88, 55.24 14.66, 68.7 0.97 M37.64 43.7 C50.61 24.8, 66.55 6.61, 75.41 -1.21 M38.19 41.38 C51.01 28.14, 61.71 13.96, 74.58 -0.29 M42.05 42.54 C55.42 28.95, 66.35 15.56, 81.35 -0.2 M44.12 41.27 C52.23 31, 62.05 20.41, 79.18 -0.41 M48.57 43.08 C56.12 29.59, 68.02 21.28, 82.65 1.71 M49.11 41.42 C57.74 31.79, 66.51 20.47, 84.22 -0.47 M52.7 40.41 C62.89 30.13, 72.97 20.39, 83.31 5.67 M54.45 40.93 C65.65 28.77, 76.56 15.57, 84.41 7.65 M57.76 40.01 C66.49 31.54, 74.69 21.32, 84.35 10.97 M58.48 41.59 C68.39 32.08, 77.33 22.12, 84.07 12.6 M66.07 40.8 C68.85 36.33, 76.44 27.65, 85.4 19.22 M65.35 40.79 C71.35 35.33, 77.77 27.12, 83.3 18.71 M69.65 40.26 C74.43 36.81, 79.11 30.21, 83.82 24.86 M70.34 41.53 C75.81 34.8, 80.89 29.74, 84.65 24.34 M73.95 41.46 C76.17 39.92, 79.27 37.4, 84.58 32.03 M74.78 41.43 C78.13 38.42, 81.25 34.79, 83.93 30.38 M80.68 41.93 C81.6 40.43, 82.74 39.19, 84.27 37 M80.27 42.05 C81.78 39.95, 83.24 38.36, 84.33 37.63" stroke="#444" stroke-width="0.5" fill="none"></path><path d="M-1.3 0.83 C27.35 1.23, 58.29 0.57, 84.17 -1.3 M-0.41 0.76 C20.52 -0.94, 39.38 0.19, 83 0.15 M84.22 -0.15 C83.49 16.63, 82.72 32.14, 82.65 40.58 M82.86 -0.14 C83.45 11.05, 83.16 23.93, 83.61 41.47 M84.49 42.74 C62.73 39.57, 42.74 41.89, 1.33 39.61 M83.32 40.78 C55.45 40.43, 27.79 41.42, -0.09 40.62 M1.02 40.44 C-1.13 26.78, 0.68 8.38, 0.29 1.26 M0.75 41.8 C0.57 31.37, 0.43 19.15, -0.03 -0.48" stroke="#000000" stroke-width="1" fill="none"></path></g><g stroke-linecap="round" transform="translate(311.8300397266946 294.7539246523959) rotate(0 41.842105263157805 20.5263157894737)"><path d="M0 0 C0 0, 0 0, 0 0 M0 0 C0 0, 0 0, 0 0 M0.42 6.71 C0.76 5.27, 2.18 3.79, 5.15 -0.41 M-0.02 6.41 C1.11 4.82, 2.19 3.84, 5.08 0.54 M1.22 13.62 C4.55 8.55, 7.97 3.64, 10.54 0.67 M-0.47 12.65 C4.54 7.08, 7.55 3.23, 10.17 -0.61 M0.71 20.13 C5.42 11.92, 9.67 6.53, 14.91 1.87 M-0.46 17.82 C4.86 12.13, 9.82 6.09, 15.8 -0.59 M0.4 22.67 C8.53 16.14, 15.34 6.98, 21.68 -1.58 M-0.48 24.26 C7.79 15.93, 13.15 8.91, 21.76 0.87 M-1.55 32.44 C3.78 24.27, 9.97 19.75, 25.94 0.67 M0.7 29.92 C7.4 23.31, 13.76 14.5, 26.71 0 M-0.18 37.69 C10.05 24.02, 24.12 8.86, 31.99 1.03 M-0.77 37.36 C8.29 25.54, 18.69 16.66, 32.64 -0.12 M-0.78 40.7 C12.88 26.26, 24.8 13.84, 38.03 1.27 M1.31 41.35 C12.66 28.07, 25.3 12.8, 37.06 -0.71 M7.66 42.07 C13.21 33.49, 21.23 24.88, 41.31 1.55 M5.29 43.07 C17.7 29.47, 28.34 17.24, 42.78 0.65 M13.19 40.1 C24.57 28.4, 39.04 12.33, 46.85 -0.51 M11.08 42.44 C24.55 26.36, 36.36 12.14, 48.17 1.03 M14.73 42.79 C22.81 35.03, 29.89 25.7, 52.59 -0.74 M15.48 41.97 C26.47 30.1, 34.64 19.37, 52.97 0.08 M22.61 42.13 C35.87 25.86, 49.08 10.42, 58.14 -1.42 M21.4 42 C30.51 32.7, 36.96 24.3, 58.55 1.02 M27.32 41.23 C38.25 29.48, 45.61 20.33, 61.9 -2.14 M26.15 41.7 C38.21 29.04, 50.01 14.58, 63.71 0.61 M32.65 43.34 C45.36 24.74, 61.04 6.85, 69.77 -0.81 M33.2 41.02 C45.8 28.04, 56.28 14.11, 68.93 0.11 M36.41 42.93 C49.99 29.11, 61.12 15.5, 76.36 -0.56 M38.47 41.66 C46.75 31.2, 56.74 20.41, 74.2 -0.77 M43.59 42.72 C51.14 29.23, 63.04 20.92, 77.66 1.35 M44.12 41.06 C52.75 31.43, 61.52 20.11, 79.23 -0.83 M47.06 40.81 C59.18 28.32, 71.22 16.32, 83.57 -0.73 M48.81 41.32 C62.19 26.66, 75.23 11.01, 84.67 1.25 M52.77 39.65 C63.03 29.47, 72.75 17.49, 83.95 5.33 M53.49 41.23 C64.96 29.91, 75.48 18.13, 83.68 6.96 M60.42 41.19 C64.96 34.82, 74.25 24.18, 85.67 12.82 M59.71 41.18 C67.58 33.6, 75.87 23.25, 83.56 12.31 M64.66 39.9 C71.38 34.13, 78.06 25.23, 84.09 18.47 M65.36 41.17 C72.75 32.11, 79.81 24.77, 84.91 17.94 M67.76 41.83 C71.21 39.31, 75.9 35.42, 84.26 26.85 M68.96 41.78 C74.14 37.01, 79 31.36, 83.34 24.49 M76.33 41.63 C78.5 38.14, 81.15 35.25, 84.73 30.12 M75.39 41.92 C78.91 37.01, 82.32 33.29, 84.85 31.59 M80.26 41.87 C81.66 40.79, 81.82 40.02, 84.15 36.82 M80.29 42.13 C81.47 40.1, 82.56 38.64, 83.9 37.38" stroke="#444" stroke-width="0.5" fill="none"></path><path d="M0.54 -0.15 C31.75 1.57, 63.17 1.29, 82.65 -0.47 M-0.82 -0.14 C23.52 -1.04, 47.32 0.02, 83.61 0.42 M84.49 1.69 C84.17 9.81, 85.63 22.67, 85.02 39.61 M83.32 -0.28 C82.94 13.53, 82.88 28.05, 83.59 40.62 M84.7 40.44 C50.16 43.3, 19.96 40.61, 0.29 42.32 M84.43 41.8 C62.69 42.55, 40.89 40.95, -0.03 40.57 M0.27 41.35 C1.36 27.63, 1.82 15.83, 1.54 -1.05 M-0.6 41.63 C-1.08 31.68, -0.04 23.61, 0.71 -0.86" stroke="#000000" stroke-width="1" fill="none"></path></g><g stroke-linecap="round"><g transform="translate(64.14582920037901 285.8065562313433) rotate(0 21.985251683526144 -0.8147744017129526)"><path d="M-0.37 -0.45 C7.01 -0.44, 37 0.09, 44.34 0.28 M1.63 -1.74 C8.96 -2.12, 37.09 -1.77, 44.02 -1.69" stroke="#000000" stroke-width="2" fill="none"></path></g></g><g stroke-linecap="round"><g transform="translate(201.8826713056419 283.8591878102907) rotate(0 21.0881477379412 0.11797177337442122)"><path d="M0.59 -0.94 C7.59 -0.66, 35.56 0.93, 42.74 0.92 M-0.56 1.18 C6.18 1.21, 34.28 -0.49, 41.57 -0.71" stroke="#000000" stroke-width="2" fill="none"></path></g></g><g stroke-linecap="round"><g transform="translate(333.8826713056419 283.8591878102907) rotate(0 21.402045147333638 -0.13715995598585096)"><path d="M0.06 -0.32 C7.22 -0.21, 36.95 -0.17, 44.17 -0.19 M-1.37 -1.53 C5.62 -1.16, 36.41 0.89, 43.76 1.25" stroke="#000000" stroke-width="2" fill="none"></path></g></g><g stroke-linecap="round" transform="translate(192.1984607793263 154.753924652396) rotate(0 11.052631578947285 11.052631578947285)"><path d="M6.24 0.13 C6.24 0.13, 6.24 0.13, 6.24 0.13 M6.24 0.13 C6.24 0.13, 6.24 0.13, 6.24 0.13 M0.89 13.81 C2.45 10.92, 4.36 9.63, 11.6 -1.04 M-0.25 12.96 C3.65 9.33, 7.22 4.99, 11.41 -0.59 M3.53 14.93 C4.91 12.7, 11.54 5.8, 17.45 -0.22 M1.87 17.56 C7.89 11.32, 12.02 4.41, 15.27 1.17 M3.62 19.14 C9.71 13.6, 16.44 7.97, 18.03 4.7 M4.14 20.63 C7.94 16.76, 10.59 12.69, 20.01 3.79 M6.53 21 C11.68 16.25, 15.17 12.8, 20.05 7.71 M8.11 22.74 C13.17 17.82, 17.78 11.26, 21.68 6.73 M12.24 21.88 C15.93 20.73, 16.5 18.81, 22.88 11.96 M12.23 23.44 C16.15 20.47, 18 16.12, 22.49 12.34 M4.14 19.63 C4.14 19.63, 4.14 19.63, 4.14 19.63 M4.14 19.63 C4.14 19.63, 4.14 19.63, 4.14 19.63 M12.73 20.95 C9.57 18.87, 5.37 15.36, 2.63 12.15 M12.69 21.99 C9.2 18.96, 5.04 14.76, 0.86 12.08 M17.08 20.76 C12.77 17.15, 9.3 13.82, 0.64 8.15 M17.5 20.87 C10.48 16.43, 5.16 11.5, 2.74 6.75 M20.28 19.16 C15.29 11.4, 11.35 8.37, 1.91 4.11 M21.14 17.74 C12.97 11.37, 6.7 5.78, 3.8 2.7 M22.25 13.43 C17.08 10.68, 14.82 4.29, 8.22 -0.9 M22.42 13.86 C15.78 7.81, 10.7 3.68, 7.14 0.96 M26.02 8.95 C19.27 6.94, 16.5 3.6, 7.39 -2.62 M23.84 11.37 C17.44 5.11, 12.32 0.53, 8.23 -1.7" stroke="#444" stroke-width="0.5" fill="none"></path><path d="M15.31 -0.14 C17.48 0.41, 18.7 2.68, 19.78 4.91 C20.85 7.14, 21.9 10.77, 21.75 13.24 C21.61 15.7, 20.54 18.16, 18.92 19.68 C17.3 21.21, 14.49 22.39, 12.03 22.38 C9.57 22.38, 6.12 21.23, 4.15 19.65 C2.19 18.06, 0.67 15.25, 0.25 12.89 C-0.16 10.54, 0.65 7.69, 1.69 5.52 C2.72 3.34, 3.98 0.54, 6.48 -0.15 C8.99 -0.85, 15.14 0.97, 16.73 1.34 C18.32 1.71, 16.08 1.93, 16.01 2.09 M9.64 -0.23 C11.74 -1.05, 14.93 -0.13, 16.88 0.9 C18.84 1.93, 20.34 3.93, 21.36 5.94 C22.39 7.95, 23.79 10.53, 23.04 12.97 C22.29 15.41, 19.3 19.29, 16.87 20.56 C14.44 21.83, 10.73 20.81, 8.48 20.59 C6.23 20.37, 4.8 20.92, 3.35 19.24 C1.9 17.55, 0.09 13.01, -0.21 10.49 C-0.5 7.96, 0.06 5.8, 1.57 4.06 C3.08 2.33, 7.9 0.67, 8.86 0.07 C9.81 -0.54, 7.13 -0.03, 7.3 0.44" stroke="#000000" stroke-width="1" fill="none"></path></g><g stroke-linecap="round" transform="translate(225.35635551616883 154.5960299155539) rotate(0 11.052631578947285 11.052631578947285)"><path d="M3.17 4.08 C3.17 4.08, 3.17 4.08, 3.17 4.08 M3.17 4.08 C3.17 4.08, 3.17 4.08, 3.17 4.08 M2 13.07 C4.73 8.89, 5.76 4.92, 9.42 0.76 M1.54 11.45 C4.32 9.62, 6.35 6.3, 10.53 1.98 M1.8 17.03 C6.28 10.75, 8.91 9.05, 14.39 1.05 M3.19 17.02 C7.2 11.56, 11.35 7.47, 14.38 3.03 M3.75 19.08 C12.49 15.34, 17 7.35, 17.78 3.19 M5.58 19.28 C11.55 14.57, 16.75 8.7, 19.06 4.59 M9.99 20.16 C9.65 19.3, 15.61 13.34, 21.71 5.81 M8.82 22.89 C13.2 17.28, 17.98 11.21, 21.67 7.21 M13.29 20.4 C17.82 17.24, 21.79 15.16, 24.94 10.14 M14.52 21.25 C17.84 18.61, 21.1 14.82, 25.28 10.23 M2.52 16.91 C2.52 16.91, 2.52 16.91, 2.52 16.91 M2.52 16.91 C2.52 16.91, 2.52 16.91, 2.52 16.91 M10.02 19.28 C7.78 16.72, 5.96 14.75, -0.08 8.78 M10.48 19.85 C7.62 17.26, 5.13 14.21, 0.04 9.11 M18.22 21.02 C14.45 15.78, 8.85 12.73, 3.71 4.13 M18.16 18.62 C12.94 16.47, 7.64 12.21, 1.52 6.56 M20.97 14.94 C18.56 12.46, 12.68 11.18, 3.47 1.38 M20.76 16.32 C15.06 12.12, 12.04 7.84, 4.27 3.47 M24.71 15.75 C18.59 10.01, 11.64 3.13, 9.62 -0.13 M23.2 14.41 C19.4 11.03, 14.25 6.62, 7.15 0.18 M22.64 9.05 C19.74 5.63, 16.4 4.41, 11.71 -3.63 M23.94 8.73 C21.39 6.5, 17.64 4.39, 10.64 -2.88" stroke="#444" stroke-width="0.5" fill="none"></path><path d="M9.24 0.45 C11.59 0, 14.86 0.94, 17.01 2.06 C19.16 3.18, 21.29 4.89, 22.14 7.19 C23 9.49, 23.28 13.48, 22.14 15.85 C21 18.23, 17.53 20.45, 15.29 21.44 C13.05 22.43, 10.88 22.56, 8.72 21.77 C6.55 20.98, 3.89 18.71, 2.31 16.72 C0.72 14.73, -1 11.98, -0.81 9.83 C-0.62 7.67, 1.55 5.39, 3.44 3.78 C5.32 2.17, 9.24 0.6, 10.53 0.17 C11.81 -0.26, 11.13 1.12, 11.12 1.2 M10.29 -0.58 C12.52 -0.94, 16.17 1.12, 18.15 2.65 C20.14 4.18, 21.9 6.39, 22.2 8.59 C22.5 10.79, 21.17 13.81, 19.95 15.84 C18.73 17.88, 16.91 19.72, 14.87 20.8 C12.83 21.88, 10.12 23.2, 7.69 22.34 C5.26 21.47, 1.46 17.63, 0.27 15.61 C-0.91 13.58, 0.21 12.17, 0.58 10.18 C0.95 8.19, 0.9 5.16, 2.47 3.66 C4.05 2.16, 8.39 1.56, 10.02 1.19 C11.65 0.81, 12.25 1.23, 12.25 1.43" stroke="#000000" stroke-width="1" fill="none"></path></g></svg>